<svg width="16" height="16" viewBox="0 0 16 16" fill="none" xmlns="http://www.w3.org/2000/svg">
<g clip-path="url(#clip0_3_248)">
<path d="M7.99998 14.6666C6.57048 14.6666 5.5418 14.6659 4.73978 14.5881C3.94695 14.5112 3.43978 14.3636 3.03503 14.1092C2.57243 13.8186 2.18126 13.4274 1.89059 12.9649C1.63634 12.5601 1.48857 12.0529 1.4118 11.2601C1.33402 10.4581 1.33331 9.42941 1.33331 7.99992C1.33331 6.57042 1.33402 5.54174 1.4118 4.73972C1.48857 3.94689 1.63634 3.43972 1.89059 3.03497C2.18125 2.57236 2.57242 2.18119 3.03503 1.89052C3.43978 1.63628 3.94695 1.4885 4.73978 1.41174C5.5417 1.33396 6.57038 1.33325 7.99998 1.33325C9.42947 1.33325 10.4582 1.33396 11.2602 1.41174C12.053 1.4885 12.5602 1.63628 12.9649 1.89052C13.4275 2.1812 13.8186 2.57237 14.1093 3.03497C14.3636 3.43972 14.5113 3.94689 14.5882 4.73972C14.6659 5.54174 14.6666 6.57042 14.6666 7.99992C14.6666 9.42941 14.6659 10.4581 14.5882 11.2601C14.5113 12.0529 14.3636 12.5601 14.1093 12.9649C13.8186 13.4274 13.4275 13.8186 12.9649 14.1092C12.5602 14.3636 12.053 14.5112 11.2602 14.5881C10.4582 14.6659 9.42947 14.6666 7.99998 14.6666Z" fill="white" stroke="white" stroke-width="2"/>
<path d="M7.99998 11.3333C9.47274 11.3333 10.6666 10.1394 10.6666 8.66667C10.6666 7.19391 9.47274 6 7.99998 6C6.52722 6 5.33331 7.19391 5.33331 8.66667C5.33331 10.1394 6.52722 11.3333 7.99998 11.3333Z" fill="white" stroke="black" stroke-width="2"/>
<path d="M11.25 5.5C11.6642 5.5 12 5.16421 12 4.75C12 4.33579 11.6642 4 11.25 4C10.8358 4 10.5 4.33579 10.5 4.75C10.5 5.16421 10.8358 5.5 11.25 5.5Z" fill="black"/>
</g>
<defs>
<clipPath id="clip0_3_248">
<rect width="16" height="16" fill="white"/>
</clipPath>
</defs>
</svg>
